<svg width="256" height="256" viewBox="0 0 256 256" fill="none" xmlns="http://www.w3.org/2000/svg">
<rect width="256" height="256" rx="45" fill="#E7E9FF"/>
<path d="M190.222 199.111H199.111M163.556 199.111H145.778V172.444M172.444 172.444H199.111V145.778H190.222M145.778 145.778H163.556M56.8889 172.442C56.8889 164.159 56.8889 160.017 58.2422 156.75C60.0465 152.394 63.5051 148.935 67.8612 147.131C71.1282 145.778 75.2699 145.778 83.5533 145.778C91.8367 145.778 95.983 145.778 99.25 147.131C103.606 148.935 107.064 152.394 108.868 156.75C110.221 160.017 110.221 164.161 110.221 172.444C110.221 180.728 110.221 184.869 108.868 188.137C107.064 192.492 103.606 195.953 99.25 197.757C95.983 199.11 91.8367 199.11 83.5533 199.11C75.2699 199.11 71.1282 199.11 67.8612 197.757C63.5051 195.953 60.0465 192.495 58.2422 188.139C56.8889 184.872 56.8889 180.725 56.8889 172.442ZM145.778 83.5532C145.778 75.2699 145.778 71.1282 147.131 67.8612C148.935 63.5051 152.394 60.0465 156.75 58.2421C160.017 56.8889 164.159 56.8889 172.442 56.8889C180.725 56.8889 184.872 56.8889 188.139 58.2421C192.495 60.0465 195.953 63.5051 197.757 67.8612C199.11 71.1282 199.11 75.2722 199.11 83.5556C199.11 91.8389 199.11 95.9807 197.757 99.2477C195.953 103.604 192.495 107.064 188.139 108.868C184.872 110.221 180.725 110.221 172.442 110.221C164.159 110.221 160.017 110.221 156.75 108.868C152.394 107.064 148.935 103.606 147.131 99.25C145.778 95.9829 145.778 91.8367 145.778 83.5532ZM56.8889 83.5532C56.8889 75.2699 56.8889 71.1282 58.2422 67.8612C60.0465 63.5051 63.5051 60.0465 67.8612 58.2421C71.1282 56.8889 75.2699 56.8889 83.5533 56.8889C91.8367 56.8889 95.983 56.8889 99.25 58.2421C103.606 60.0465 107.064 63.5051 108.868 67.8612C110.221 71.1282 110.221 75.2722 110.221 83.5556C110.221 91.8389 110.221 95.9807 108.868 99.2477C107.064 103.604 103.606 107.064 99.25 108.868C95.983 110.221 91.8367 110.221 83.5533 110.221C75.2699 110.221 71.1282 110.221 67.8612 108.868C63.5051 107.064 60.0465 103.606 58.2422 99.25C56.8889 95.9829 56.8889 91.8367 56.8889 83.5532Z" stroke="#52525B" stroke-width="18.1333" stroke-linecap="round" stroke-linejoin="round"/>
</svg>
